<?xml version="1.0" encoding="UTF-8"?>
<svg xmlns="http://www.w3.org/2000/svg" version="1.1" xmlns:xlink="http://www.w3.org/1999/xlink" viewBox="0 0 88.5 89">
  <defs>
    <style>
      .cls-1 {
        mask: url(#mask-1);
      }

      .cls-2 {
        mask: url(#mask);
      }

      .cls-3 {
        fill: #fff;
      }

      .cls-3, .cls-4 {
        fill-rule: evenodd;
      }
    </style>
    <mask id="mask" x="0" y=".3" width="276.8" height="88.7" maskUnits="userSpaceOnUse">
      <g id="mask-2">
        <polygon id="path-1" class="cls-3" points="0 .3 276.8 .3 276.8 89 0 89 0 .3"/>
      </g>
    </mask>
    <mask id="mask-1" x="0" y="32.8" width="25.8" height="22.6" maskUnits="userSpaceOnUse">
      <g id="mask-4">
        <polygon id="path-3" class="cls-3" points="0 32.8 25.8 32.8 25.8 55.3 0 55.3 0 32.8"/>
      </g>
    </mask>
  </defs>
  <!-- Generator: Adobe Illustrator 28.7.1, SVG Export Plug-In . SVG Version: 1.2.0 Build 142)  -->
  <g>
    <g id="Layer_1">
      <g class="cls-2">
        <path id="Fill-1" class="cls-4" d="M0,.3h88.5v88.7H0V.3Z"/>
      </g>
      <path id="Fill-4" class="cls-3" d="M37.8,34.1c-.5.2-.7.5-.8.9-.1.3-4.1,17.5-4.1,17.8,0,.4-.1.7.3.9.5.2,2.7,1,2.9,1.1.2,0,.1.2,0,.2h-9.8c-.2,0-.3,0-.1-.1.2,0,2.4-.9,2.6-1,.2,0,.8-.3.9-.8.1-.4,4.2-17.6,4.3-17.9,0-.4,0-.8-.4-1-.3-.1-2.8-1-2.9-1-.1,0-.1-.1,0-.1h10.3c.1,0,.2,0,0,.1-.2,0-1.8.5-2,.6-.2,0-.8.3-1.1.4"/>
      <path id="Fill-6" class="cls-3" d="M58.2,54.4c-.3.1-3.9,1.5-7.3,1.6-8.9.2-12.1-6-10.6-11.6.8-3,2.7-5.8,5.2-7.7,1.4-1.1,5.6-3.7,11.1-3.7s3.7.1,5.6.6c.9.2.8.8.7,1.2,0,.2-2.1,6.5-2.2,6.6,0,.2-.3.2-.3,0s.3-5.7.2-5.9c0-.6,0-.9-.7-1.1-.9-.3-5.2-.7-8.5.8-5.4,2.5-8.5,8.3-7.9,12.9.5,3.8,3.5,6.9,8.4,7.1,1.5,0,2.6-.2,2.9-.3.5-.1.5-.3.7-.6,0-.3.9-3.7.9-3.8,0-.2.2-.6-.2-.8-.5-.1-4.9-1.3-5.1-1.4-.2,0-.1-.2,0-.2h8.2c.3,0,1.2,0,1,.7-.2.8-1.5,4.7-1.6,5,0,.3-.3.4-.6.5"/>
      <g id="Group-10">
        <g class="cls-1">
          <path id="Fill-8" class="cls-3" d="M25.8,55.2c-.2,0-2.2-.9-2.7-1.1-.6-.3-.6-.7-.6-1,0-.3.3-20,.2-20.2,0,0-.2-.1-.3,0-.3.3-19.8,21.1-20.2,21.3-.7.5-2.1,1-2.1,1,0,0,0,0-.1,0v.2c0,0,.1,0,.1,0h10.3c.1,0,.2-.1,0-.1-.8-.2-4.1-.8-4.6-1-.6-.2-.6-.5-.4-.8.2-.3,5.4-6.6,5.8-6.9.5-.4.7-.4,1.5-.4.3,0,1.8,0,3.3,0,1.2,0,2.5.1,2.8.2.8,0,.7.6.7.9s-.2,4.9-.2,5.7c0,.8-.2.9-.7,1.1-.3,0-3.8,1.2-3.9,1.3-.1,0,0,0,0,0h10.9c.2,0,.2,0,.1-.1M19.7,44.6c0,.4-.2.7-.9.7s-5.3,0-5.3,0c-.8,0-.8-.5-.5-.8.3-.3,5.9-6.2,6.1-6.4.4-.4.8-.4.8.2s0,6,0,6.3"/>
        </g>
      </g>
      <path id="Fill-11" class="cls-3" d="M85,55.9c-.2,0-2.2-.9-2.7-1.2-.6-.3-.6-.7-.6-1,0-.3.3-20.4.2-20.6,0,0-.2-.1-.3,0-.3.3-20,21.5-20.3,21.7-.7.5-2.1,1-2.1,1.1,0,0,0,.1,0,.1h10.4c.1,0,.2-.1,0-.1-.8-.2-4.1-.8-4.7-1-.6-.2-.6-.5-.4-.8.2-.3,5.5-6.7,5.9-7,.5-.4.7-.4,1.5-.4.3,0,1.8,0,3.3,0,1.3,0,2.5.1,2.8.2.8,0,.7.6.7.9s-.2,5-.2,5.8c0,.8-.2.9-.7,1.1-.3,0-3.8,1.2-3.9,1.3-.1,0,0,0,0,0h11c.2,0,.2,0,.1-.1M78.8,45c0,.5-.2.7-1,.7s-5.4,0-5.4,0c-.8,0-.8-.5-.5-.8.3-.3,5.9-6.3,6.1-6.5.4-.4.8-.4.8.2s0,6.1,0,6.5"/>
    </g>
  </g>
</svg>